<svg width="68" height="68" viewBox="0 0 68 68" fill="none" xmlns="http://www.w3.org/2000/svg">
    <g filter="url(#p0on3htp6a)">
        <rect x="4" width="60" height="60" rx="30" fill="#00A5E5" shape-rendering="crispEdges"/>
        <path d="M32 38.5h4c0 1.1-.9 2-2 2s-2-.9-2-2zm11-2v1H25v-1l2-2v-6c0-3.1 2-5.8 5-6.7v-.3c0-1.1.9-2 2-2s2 .9 2 2v.3c3 .9 5 3.6 5 6.7v6l2 2zm-4-8c0-2.8-2.2-5-5-5s-5 2.2-5 5v7h10v-7z" fill="#fff"/>
    </g>
    <defs>
        <filter id="p0on3htp6a" x="0" y="0" width="68" height="68" filterUnits="userSpaceOnUse" color-interpolation-filters="sRGB">
            <feFlood flood-opacity="0" result="BackgroundImageFix"/>
            <feColorMatrix in="SourceAlpha" values="0 0 0 0 0 0 0 0 0 0 0 0 0 0 0 0 0 0 127 0" result="hardAlpha"/>
            <feOffset dy="4"/>
            <feGaussianBlur stdDeviation="2"/>
            <feComposite in2="hardAlpha" operator="out"/>
            <feColorMatrix values="0 0 0 0 0 0 0 0 0 0 0 0 0 0 0 0 0 0 0.25 0"/>
            <feBlend in2="BackgroundImageFix" result="effect1_dropShadow_3986_11576"/>
            <feBlend in="SourceGraphic" in2="effect1_dropShadow_3986_11576" result="shape"/>
        </filter>
    </defs>
</svg>
