<svg width="146" height="36" viewBox="0 0 146 36" fill="none" xmlns="http://www.w3.org/2000/svg">
    <path d="m92.29 6.81 3.273 1.91 8.526-4.92V0L92.29 6.81z" fill="#00A4E4"/>
    <path d="M104.089 0v3.8l8.637 4.986 3.282-1.9L104.089 0z" fill="#50C8E8"/>
    <path d="M120.168 32.2V36l-11.809-6.816 3.267-1.91 8.542 4.925z" fill="#439539"/>
    <path d="m109.135 32.218.003 3.779-11.89-6.864 3.31-1.91 8.577 4.995z" fill="#31682C"/>
    <path d="m109.132 32.218.003 3.776 11.831-6.823-3.293-1.897-8.541 4.944z" fill="#439539"/>
    <path d="M4.881 5.504a4.032 4.032 0 0 1 1.669.336c.505.222.965.536 1.353.928.395.394.71.86.928 1.373.221.53.33 1.098.318 1.671v16.12a4.166 4.166 0 0 1-.318 1.672 4.213 4.213 0 0 1-.928 1.354c-.392.382-.85.69-1.353.906a4.038 4.038 0 0 1-1.653.34 4.163 4.163 0 0 1-1.674-.34 4.428 4.428 0 0 1-1.376-.906 4.255 4.255 0 0 1-.925-1.354 4.169 4.169 0 0 1-.337-1.671V9.813A4.131 4.131 0 0 1 .922 8.14a4.325 4.325 0 0 1 2.3-2.3 4.16 4.16 0 0 1 1.66-.337zm1.891 4.308a1.856 1.856 0 0 0-.56-1.375 1.82 1.82 0 0 0-1.33-.557 1.907 1.907 0 0 0-1.8 1.187c-.096.236-.142.49-.136.745v16.12a1.824 1.824 0 0 0 .556 1.335 1.87 1.87 0 0 0 1.38.56 1.907 1.907 0 0 0 1.89-1.907V9.812zM16.502 5.504a4.026 4.026 0 0 1 1.656.337c.506.22.965.535 1.353.927.397.393.713.86.931 1.373.22.53.327 1.099.318 1.672v4.95a4.174 4.174 0 0 1-1.271 3.029 4.576 4.576 0 0 1-1.354.912 4.13 4.13 0 0 1-1.655.317h-1.904v10.585a.577.577 0 0 1-.171.43.546.546 0 0 1-.388.168h-1.192a.523.523 0 0 1-.59-.598V6.092c0-.153.06-.3.165-.41a.546.546 0 0 1 .425-.185l3.677.007zm1.907 4.309a1.875 1.875 0 0 0-.556-1.376 1.84 1.84 0 0 0-1.341-.556h-1.936v8.767h1.926a1.907 1.907 0 0 0 1.907-1.907V9.813zM25.495 7.88v8.79h3.228a.53.53 0 0 1 .598.594v1.189a.604.604 0 0 1-.169.407.562.562 0 0 1-.429.187h-3.228v8.78h3.228a.56.56 0 0 1 .43.184.616.616 0 0 1 .168.417v1.185a.527.527 0 0 1-.598.597h-4.417a1.157 1.157 0 0 1-1.191-1.191V6.695c-.002-.31.12-.608.337-.829a1.116 1.116 0 0 1 .854-.353h4.417a.56.56 0 0 1 .43.185.635.635 0 0 1 .168.41v1.191a.529.529 0 0 1-.598.591l-3.228-.01zM40.758 14.763a4.077 4.077 0 0 1-1.297 3.086 4.095 4.095 0 0 1 1.297 3.117v8.64a.525.525 0 0 1-.595.598h-1.2a.524.524 0 0 1-.592-.598v-8.653a1.88 1.88 0 0 0-.56-1.375 1.833 1.833 0 0 0-1.337-.556h-1.907v10.584a.537.537 0 0 1-.187.43.604.604 0 0 1-.407.168h-1.188a.524.524 0 0 1-.594-.598V6.696a1.172 1.172 0 0 1 .362-.83 1.112 1.112 0 0 1 .848-.353h3.086a4.131 4.131 0 0 1 1.671.337c.51.214.972.53 1.357.928.387.396.695.862.909 1.373a4.13 4.13 0 0 1 .334 1.671v4.941zm-2.374-4.938a1.87 1.87 0 0 0-.56-1.376 1.833 1.833 0 0 0-1.337-.556H34.58v8.755h1.907a1.906 1.906 0 0 0 1.906-1.907l-.01-4.916zM48.152 5.504a4.023 4.023 0 0 1 1.653.336c.506.22.965.536 1.353.928.397.393.713.86.931 1.373.22.53.328 1.098.318 1.671v19.794a.525.525 0 0 1-.59.598h-1.19a.523.523 0 0 1-.594-.598V19.021H46.22v10.585a.528.528 0 0 1-.594.598h-1.188a.635.635 0 0 1-.55-.363.543.543 0 0 1-.045-.235V9.812a4.198 4.198 0 0 1 .318-1.671 4.356 4.356 0 0 1 2.304-2.3 4.131 4.131 0 0 1 1.687-.337zm1.907 11.144V9.812a1.879 1.879 0 0 0-.556-1.375 1.84 1.84 0 0 0-1.338-.557 1.906 1.906 0 0 0-1.932 1.932v6.836h3.826zM60.76 5.688c.107.11.167.257.17.41v1.191a.528.528 0 0 1-.595.591h-1.672v21.726a.525.525 0 0 1-.594.598h-1.191a.523.523 0 0 1-.591-.598V7.88h-1.672a.524.524 0 0 1-.597-.59V6.097a.585.585 0 0 1 .171-.41.537.537 0 0 1 .426-.184h5.72a.547.547 0 0 1 .426.184zM65.46 29.606a.528.528 0 0 1-.594.598h-1.192a.523.523 0 0 1-.594-.598V6.091a.636.636 0 0 1 .169-.41.552.552 0 0 1 .425-.184h1.192a.553.553 0 0 1 .426.185c.107.11.167.256.168.41v23.514zM76.916 5.688c.107.11.168.256.172.41v17.9a4.376 4.376 0 0 1-.709 2.38l-2.005 3.527a.58.58 0 0 1-.518.299h-2.084a.582.582 0 0 1-.521-.3l-2.002-3.526a4.376 4.376 0 0 1-.709-2.38v-17.9a.598.598 0 0 1 .172-.41.544.544 0 0 1 .425-.185h1.189a.572.572 0 0 1 .41.185.582.582 0 0 1 .18.41v17.9c-.001.106.006.212.023.317.011.094.03.186.057.277l1.818 3.178 1.783-3.178a1.45 1.45 0 0 0 .11-.594v-17.9a.607.607 0 0 1 .17-.41.544.544 0 0 1 .425-.185h1.189a.544.544 0 0 1 .425.185zM82.582 7.88v8.79h3.232a.525.525 0 0 1 .594.594v1.189a.575.575 0 0 1-.168.407.549.549 0 0 1-.426.187h-3.232v8.78h3.232a.546.546 0 0 1 .426.184c.107.11.168.257.168.41v1.186a.529.529 0 0 1-.594.597h-4.417a1.152 1.152 0 0 1-.858-.34 1.142 1.142 0 0 1-.318-.852V6.695c-.008-.31.106-.611.318-.838a1.128 1.128 0 0 1 .858-.353h4.417a.547.547 0 0 1 .426.184c.107.11.167.257.168.41V7.29a.528.528 0 0 1-.594.59h-3.232zM129.31 29.606a.522.522 0 0 1-.149.449.53.53 0 0 1-.449.149h-1.188a.526.526 0 0 1-.594-.598V6.092a.593.593 0 0 1 .168-.41.548.548 0 0 1 .426-.185h1.188a.552.552 0 0 1 .429.185.61.61 0 0 1 .169.41v23.514zM136.663 5.577a3.993 3.993 0 0 1 1.649.337c.504.216.964.523 1.357.905.399.384.716.844.931 1.354.22.53.328 1.098.318 1.671v16.09a4.04 4.04 0 0 1-.874 2.56 4.376 4.376 0 0 1-2.192 1.522v1.967a.554.554 0 0 1-.169.391.572.572 0 0 1-.426.169h-1.191a.575.575 0 0 1-.423-.169.537.537 0 0 1-.171-.39v-1.968a4.394 4.394 0 0 1-2.209-1.522 4.028 4.028 0 0 1-.877-2.56V9.85a4.138 4.138 0 0 1 .334-1.672c.214-.514.533-.977.937-1.36.391-.385.85-.694 1.354-.912a3.999 3.999 0 0 1 1.652-.33zm1.907 4.274a1.878 1.878 0 0 0-.55-1.376 1.907 1.907 0 0 0-2.682 0 1.871 1.871 0 0 0-.553 1.376v16.082a1.907 1.907 0 1 0 3.785 0V9.851z" fill="#414042"/>
    <path d="m120.965 15.396-3.292 1.903v9.975l3.292 1.897V15.396z" fill="#7AC143" style="mix-blend-mode:multiply"/>
    <path d="m100.558 27.223-3.305 1.91h-.006V15.326l3.264 1.913.047 9.984z" fill="#439539"/>
    <path d="M104.184 23.703v3.781L92.296 20.62l3.311-1.91 8.577 4.993z" fill="#00447C" style="mix-blend-mode:multiply"/>
    <path d="m104.178 23.702.006 3.782 11.824-6.826-3.285-1.904-8.545 4.948zM95.607 18.71l-3.305 1.907-.009.003V6.81l3.267 1.91.047 9.99z" fill="#0067B1"/>
    <path d="m116.008 6.886-3.282 1.9v9.969h-.003l3.285 1.903h.007V6.886h-.007z" fill="#00A4E4"/>
    <path d="m97.244 15.322 3.267 1.91 8.526-4.922V8.513l-11.793 6.81z" fill="#7AC143" style="mix-blend-mode:multiply"/>
    <path d="M109.039 8.513h-.003v3.797h.003l8.634 4.989 3.292-1.903-11.926-6.883z" fill="#A0CF67" style="mix-blend-mode:multiply"/>
    <path d="M142.103 7.474a1.809 1.809 0 0 1 .21-.87c.135-.257.34-.47.591-.614a1.746 1.746 0 0 1 1.522-.089c.197.08.375.202.521.356.149.156.267.34.347.54.081.217.122.446.121.677.003.302-.068.6-.207.868-.14.254-.345.465-.594.613a1.746 1.746 0 0 1-1.522.089 1.453 1.453 0 0 1-.537-.356 1.664 1.664 0 0 1-.452-1.214zm.41 0c-.003.235.05.467.156.677.101.198.254.366.442.486a1.249 1.249 0 0 0 1.296 0c.188-.119.34-.287.439-.486a1.531 1.531 0 0 0 .066-1.204 1.19 1.19 0 0 0-.645-.715 1.267 1.267 0 0 0-1.163.076 1.22 1.22 0 0 0-.438.511 1.499 1.499 0 0 0-.153.665v-.01zm.655 1.068v-2.18h.572a.571.571 0 0 1 .635.651.551.551 0 0 1-.298.531l.356 1.007h-.401l-.318-.915h-.197v.915l-.349-.01zm.369-1.144h.079a.433.433 0 0 0 .318-.086.477.477 0 0 0 .079-.318.481.481 0 0 0-.063-.27.286.286 0 0 0-.232-.095h-.169l-.012.769z" fill="#414042"/>
</svg>
