<svg width="112" height="161" viewBox="0 0 112 161" fill="none" xmlns="http://www.w3.org/2000/svg">
    <path d="M76.495 6.29c-7.29-2.27-11-2.7-16-2.77h.05a1.76 1.76 0 0 1 0-3.52c5.25.07 9.33.54 17 2.93a1.76 1.76 0 0 1-.4 3.44h-.13a1.82 1.82 0 0 1-.52-.08z" fill="url(#9yp2qdl6za)"/>
    <path d="M36.065 12.01c.152 0 .304-.02.45-.06a76.888 76.888 0 0 1 19.38-2.29c4.642.013 9.279.327 13.88.94.12.015.24.015.36 0a1.76 1.76 0 0 0 1.62-1.52 1.77 1.77 0 0 0-1.52-2 110.62 110.62 0 0 0-14.34-1 80.67 80.67 0 0 0-20.27 2.4 1.76 1.76 0 0 0 .44 3.47v.06z" fill="url(#pby2f1pphb)"/>
    <path d="M75.156 10.905a1.77 1.77 0 0 1 .503-2.457 1.75 1.75 0 0 1 1.345-.238 96.002 96.002 0 0 1 11.09 2.92 1.742 1.742 0 0 1 1 .88 1.76 1.76 0 0 1-1.41 2.57h-.13c-.186 0-.372-.03-.55-.09a91.826 91.826 0 0 0-10.73-2.83 1.77 1.77 0 0 1-1.118-.755z" fill="url(#s8gnfr4wpc)"/>
    <path d="M43.595 13.96a1.77 1.77 0 0 1 1.16-.68 89.685 89.685 0 0 1 12.58-.89 93.14 93.14 0 0 1 37.07 7.75 1.76 1.76 0 0 1-.58 3.38h-.12a1.86 1.86 0 0 1-.7-.14 89.391 89.391 0 0 0-35.65-7.47 87.143 87.143 0 0 0-12.1.85 1.76 1.76 0 0 1-1.66-2.8z" fill="url(#rqtgjnsyrd)"/>
    <path d="M19.865 31.42h-.13a1.75 1.75 0 0 1-1.53-.94 1.77 1.77 0 0 1 .74-2.38 87.17 87.17 0 0 1 40.26-10.39 66.998 66.998 0 0 1 16.53 2 1.75 1.75 0 0 1 .968 2.756 1.77 1.77 0 0 1-1.868.644 63.94 63.94 0 0 0-15.67-1.89 83.59 83.59 0 0 0-38.61 10c-.215.11-.45.178-.69.2z" fill="url(#1xpwb71nde)"/>
    <path d="M37.145 27.32a79.004 79.004 0 0 1 21.13-2.91c13.58 0 26.07 3.54 36.13 10.23a43.734 43.734 0 0 1 10.83 9.67 1.702 1.702 0 0 1 .34 1.3 1.754 1.754 0 0 1-.67 1.17 1.72 1.72 0 0 1-.94.35h-.13a1.77 1.77 0 0 1-1.4-.7 40.404 40.404 0 0 0-10-8.87c-9.47-6.3-21.27-9.63-34.14-9.63a75.884 75.884 0 0 0-20.21 2.78 1.78 1.78 0 0 1-2.16-1.22 1.74 1.74 0 0 1 .16-1.34 1.76 1.76 0 0 1 1.06-.83z" fill="url(#ib3c9tv3ef)"/>
    <path d="M6.735 59.73h-.13a1.71 1.71 0 0 1-1.16-.43 1.76 1.76 0 0 1-.16-2.48c14-15.92 34.82-25.81 54.32-25.81a50.72 50.72 0 0 1 29.59 9.11 1.75 1.75 0 0 1 .44 2.45 1.81 1.81 0 0 1-2.45.44 47.38 47.38 0 0 0-27.63-8.51c-18.48 0-38.26 9.44-51.63 24.63a1.76 1.76 0 0 1-1.19.6z" fill="url(#ynffhvvnng)"/>
    <path d="M111.005 77.75c-5.06-14.39-14.14-26-25.55-32.63a56.511 56.511 0 0 0-29.87-8c-11 .31-21.31 4.17-30.56 11.47a1.76 1.76 0 0 0-.29 2.47 1.79 1.79 0 0 0 2.47.29 48.09 48.09 0 0 1 29.87-10.78 52.41 52.41 0 0 1 26.6 7.63c10.7 6.24 19.22 17.16 24 30.76a1.756 1.756 0 0 0 1.66 1.17h.12c.158-.01.313-.043.46-.1a1.75 1.75 0 0 0 1.028-.91 1.754 1.754 0 0 0 .062-1.37z" fill="url(#rr6agko7nh)"/>
    <path d="M2.785 100.51h-.12l-.01-.02a1.774 1.774 0 0 1-1.4-.69 1.77 1.77 0 0 1-.31-1.53c4-14.95 11.82-28.82 22-38.95 10.58-10.54 22.97-16.13 34.78-15.62a1.76 1.76 0 1 1-.08 3.52h-1.41c-10.39 0-21.33 5.19-30.81 14.63-9.74 9.7-17.22 22.97-21.07 37.36a1.74 1.74 0 0 1-1.57 1.3z" fill="url(#dbmvdr9dti)"/>
    <path d="M26.48 74.705c2.052-6.246 4.167-12.684 9.595-17.365 6.15-5.33 13.52-6.4 18.62-6.4a35.1 35.1 0 0 1 12.51 2.28c9.68 3.79 16.05 13.79 18.41 28.89a1.78 1.78 0 0 1-1.47 2h-.27a1.76 1.76 0 0 1-1.74-1.49c-1.52-9.65-5.57-22.02-16.24-26.15a30.93 30.93 0 0 0-11-2c-6.43 0-12.46 2.02-16.55 5.54-4.658 4.015-6.52 9.655-8.494 15.64l-.066.2c-.54 1.66-1.11 3.39-1.73 5.06a1.77 1.77 0 0 1-2.27 1.04 1.711 1.711 0 0 1-1-.92 1.69 1.69 0 0 1 0-1.34c.59-1.6 1.14-3.28 1.67-4.91l.025-.075z" fill="url(#xzp675vzfj)"/>
    <path d="M45.306 63.76a14.76 14.76 0 0 1 8.66-2.64 17.93 17.93 0 0 1 5.78 1 1.79 1.79 0 0 0 2.26-1.11 1.77 1.77 0 0 0-1.1-2.24 21.634 21.634 0 0 0-7-1.18 18 18 0 0 0-10.68 3.33c-4.66 3.4-6.88 8.78-8.59 13.54-.45 1.27-.88 2.55-1.31 3.83l-.023.068c-1.482 4.385-2.88 8.521-5.217 12.292a59.342 59.342 0 0 1-11.16 12.73 1.758 1.758 0 0 0 .18 2.762c.294.202.643.309 1 .308h.12a1.776 1.776 0 0 0 1-.44 63.007 63.007 0 0 0 11.81-13.51c2.544-4.104 4.07-8.624 5.552-13.008l.027-.082c.42-1.26.84-2.51 1.29-3.76 1.58-4.28 3.54-9.08 7.4-11.89z" fill="url(#t7ztemqn5k)"/>
    <path d="M39.124 99.56a52.569 52.569 0 0 0 5.21-15c.238-1.318.368-2.647.497-3.965l.004-.043c.33-3.387.641-6.584 2.71-8.992a8.85 8.85 0 0 1 6.62-2.84 8.56 8.56 0 0 1 4.33 1.14c4.44 2.62 4.89 8.59 5.25 13.39 1.06 14.14-.78 24.62-5.81 33a1.763 1.763 0 0 0 .59 2.42 1.822 1.822 0 0 0 2.42-.6c5.43-9 7.43-20.12 6.31-35-.4-5.31-.95-12.59-7-16.15a11.83 11.83 0 0 0-6.07-1.6 12.47 12.47 0 0 0-9.32 4c-2.81 3.21-3.2 7.14-3.57 10.93-.12 1.29-.24 2.51-.45 3.68a48.88 48.88 0 0 1-4.87 14 60.998 60.998 0 0 1-20 21.9 66.104 66.104 0 0 1-7.76 4.48 1.79 1.79 0 0 0-.9 1 1.76 1.76 0 0 0 .09 1.35 1.737 1.737 0 0 0 1.58 1h.13c.222-.011.44-.069.64-.17a69.365 69.365 0 0 0 8.18-4.73 64.335 64.335 0 0 0 21.19-23.2z" fill="url(#ylx0qywxtl)"/>
    <path d="M55.815 74.29c2.58 13.11-.46 26.58-8.81 38.94a74.33 74.33 0 0 1-30.8 25.6 1.48 1.48 0 0 1-.58.15h-.13a1.76 1.76 0 0 1-.71-3.37c22.64-10.01 42.81-34.06 37.57-60.64a1.76 1.76 0 0 1 1.39-2.06 1.77 1.77 0 0 1 2.07 1.38z" fill="url(#99tvgnaezm)"/>
    <path d="M59.961 99.838c.242.399.315.879.204 1.332-5.76 23.46-27.39 37.09-39.78 43.13-.2.099-.417.16-.64.18h-.13a1.763 1.763 0 0 1-1.71-1.365 1.76 1.76 0 0 1 .94-1.975c11.83-5.81 32.48-18.74 37.9-40.81a1.76 1.76 0 0 1 3.216-.492z" fill="url(#lfliwj6yin)"/>
    <path d="M58.425 95.58a1.74 1.74 0 0 0 1.15.69h.43a1.77 1.77 0 0 0 1.61-1.5c.794-4.63.838-9.356.13-14a1.762 1.762 0 0 0-3.47.61 40.29 40.29 0 0 1-.14 12.89 1.75 1.75 0 0 0 .29 1.31z" fill="url(#twvh3w17co)"/>
    <path d="M57.824 122.362a1.77 1.77 0 0 1-.28 1.318c-7.08 10.24-17.67 18.8-31.47 25.46-.199.101-.417.159-.64.17h-.13a1.773 1.773 0 0 1-1.74-1.522 1.772 1.772 0 0 1 .08-.828 1.73 1.73 0 0 1 .9-1c13.25-6.39 23.38-14.56 30.1-24.28a1.808 1.808 0 0 1 2.45-.45c.383.267.645.674.73 1.132z" fill="url(#q5a1vwg3np)"/>
    <path d="M28.217 99.984c.458-.063.924.053 1.298.326a1.762 1.762 0 0 1 .34 2.48 68.386 68.386 0 0 1-19.94 17.62c-.23.139-.491.218-.76.23h-.13a1.776 1.776 0 0 1-1.52-.88 1.76 1.76 0 0 1 .63-2.4 64.816 64.816 0 0 0 18.92-16.71 1.788 1.788 0 0 1 1.162-.666z" fill="url(#en217tynyq)"/>
    <path d="M50.305 141.66a1.78 1.78 0 0 0-.38-1.29 1.81 1.81 0 0 0-2.47-.28 90.507 90.507 0 0 1-16.56 10.37 1.761 1.761 0 0 0 .78 3.34h.13c.226-.013.447-.071.65-.17a93.54 93.54 0 0 0 17.2-10.78 1.77 1.77 0 0 0 .65-1.19z" fill="url(#5iwjqikeor)"/>
    <path d="M53.107 138.42a1.742 1.742 0 0 1-.582-.41 1.76 1.76 0 0 1 .07-2.44c12.89-12.23 18.99-30.29 16.73-49.53a1.751 1.751 0 0 1 1.54-2h.22a1.77 1.77 0 0 1 1.73 1.55c2.4 20.36-4.09 39.5-17.8 52.5a1.718 1.718 0 0 1-1.09.47h-.12a1.742 1.742 0 0 1-.698-.14z" fill="url(#mgsm792bps)"/>
    <path d="M50.365 88.24a1.76 1.76 0 1 0-3.45-.69c-3.41 17.09-16.43 32.7-35.71 42.85a1.77 1.77 0 0 0-.74 2.38 1.75 1.75 0 0 0 1.56.94h.12c.245-.016.484-.084.7-.2 20.23-10.65 33.9-27.15 37.52-45.28z" fill="url(#74lo6upcst)"/>
    <path d="M14.616 108.473c.055.225.065.458.029.687a1.742 1.742 0 0 1-.74 1.15 67.314 67.314 0 0 1-8 5.08c-.222.112-.463.18-.71.2h-.12a1.76 1.76 0 0 1-.84-3.31 63.662 63.662 0 0 0 7.63-4.81 1.817 1.817 0 0 1 2.46.38c.137.186.236.398.291.623z" fill="url(#0rohzqn3du)"/>
    <path d="M72.515 124.96a1.76 1.76 0 0 1-1.56-2.56c4.15-7.98 5.62-17.96 4.5-30.52-.98-10.91-2.52-21.19-10.62-27.12a1.749 1.749 0 0 1-.7-1.16 1.73 1.73 0 0 1 .32-1.3 1.8 1.8 0 0 1 2.46-.38c9.28 6.79 11 17.9 12.05 29.64 1.18 13.25-.41 23.87-4.89 32.46a1.717 1.717 0 0 1-1.43.94h-.13z" fill="url(#124d5sazbv)"/>
    <path d="M71.004 129.67a1.76 1.76 0 0 0-.56-2.42 1.712 1.712 0 0 0-.93-.27 1.743 1.743 0 0 0-1.5.83c-6.76 10.88-17.11 19.88-29.93 26a1.761 1.761 0 0 0-.341 2.967c.313.249.701.384 1.101.383h.13a1.73 1.73 0 0 0 .63-.17c13.4-6.41 24.26-15.87 31.4-27.32z" fill="url(#5gbezntpqw)"/>
    <path d="M31.735 99.5a1.79 1.79 0 0 1-1-.31 1.72 1.72 0 0 1-.72-1.12 1.752 1.752 0 0 1 .27-1.32c1.03-1.51 3.83-5.79 4.38-7.39a1.76 1.76 0 0 1 1.66-1.18c.197-.001.393.03.58.09a1.79 1.79 0 0 1 1.175 1.562c.014.23-.018.46-.095.678-.8 2.34-4.39 7.63-4.8 8.22a1.748 1.748 0 0 1-1.33.77h-.12z" fill="url(#4wuxbmb2kx)"/>
    <path d="M70.534 83.01h.28a1.75 1.75 0 0 0 1.15-.7c.27-.38.382-.85.31-1.31-.13-.83-.31-1.67-.54-2.57a1.78 1.78 0 0 0-2.15-1.25 1.7 1.7 0 0 0-1.08.81 1.77 1.77 0 0 0-.18 1.33c.196.735.353 1.479.47 2.23a1.75 1.75 0 0 0 1.74 1.46z" fill="url(#d0t7cdsc2y)"/>
    <path d="M48.735 78.66h.11a1.76 1.76 0 0 1 1.78 1.62c.1.92.1 1.78.1 2.61a1.78 1.78 0 0 1-1.64 1.73h-.16a1.75 1.75 0 0 1-1.72-1.79c.01-.71-.02-1.46-.08-2.27a1.76 1.76 0 0 1 1.61-1.9z" fill="url(#6rqvjvzp6z)"/>
    <path d="M3.745 108.95c.287-.022.564-.111.81-.26 9.81-6.13 16.63-13.31 20.85-22a1.69 1.69 0 0 0 .08-1.34 1.76 1.76 0 0 0-1.66-1.19 1.74 1.74 0 0 0-1.58 1c-3.93 8-10.32 14.73-19.56 20.5a1.768 1.768 0 0 0 .077 3.039c.261.145.555.221.853.221l.13.03z" fill="url(#dvwgbx5xjA)"/>
    <path d="M85.395 112.39a130.187 130.187 0 0 0 1-23.89 1.77 1.77 0 0 0-1.76-1.65h-.13a1.77 1.77 0 0 0-1.63 1.87 125.88 125.88 0 0 1-.97 23.29c-2.77 23.93-23.28 37.59-35.25 43.61a1.76 1.76 0 0 0 .79 3.34h.12c.233-.015.46-.076.67-.18 12.61-6.37 34.21-20.77 37.16-46.39z" fill="url(#8daupb4ylB)"/>
    <path d="M90.255 133.19a1.818 1.818 0 0 1 1.409.677 1.766 1.766 0 0 1 .161 1.963c-3.96 6.9-7.58 10.44-13.28 14.9a1.775 1.775 0 0 1-1 .37h-.13a1.731 1.731 0 0 1-1.38-.67 1.744 1.744 0 0 1-.15-1.95c.114-.202.267-.378.45-.52 5.45-4.27 8.7-7.43 12.39-13.88a1.765 1.765 0 0 1 1.53-.89z" fill="url(#lxvic4zu1C)"/>
    <path d="M97.585 132.01a1.803 1.803 0 0 0-2.19 1.2c-3.63 12.42-16 22.29-28.87 22.95a1.79 1.79 0 0 0-1.64 1.85 1.77 1.77 0 0 0 1.76 1.67h.09l.71-.05c13.92-1 27.39-11.93 31.33-25.43a1.77 1.77 0 0 0-1.19-2.19z" fill="url(#0c1gj2cdzD)"/>
    <path d="M74.874 48.62a38.149 38.149 0 0 0-10.76-4.08 1.78 1.78 0 0 0-2.09 1.35 1.752 1.752 0 0 0 1.35 2.09 34.65 34.65 0 0 1 9.77 3.7 23.389 23.389 0 0 1 7.38 7.26 50.828 50.828 0 0 1 8.08 19.35c1.86 9 2.07 19 .69 32.3-1.32 12.7-5.5 22.27-12.43 28.45a1.724 1.724 0 0 0-.59 1.21 1.737 1.737 0 0 0 1.039 1.714c.218.096.453.145.691.146h.13a1.776 1.776 0 0 0 1-.44c7.61-6.79 12.18-17.12 13.59-30.71 1.41-13.59 1.19-24-.74-33.38a54.369 54.369 0 0 0-8.66-20.67 26.66 26.66 0 0 0-8.45-8.29z" fill="url(#wxlwj0t69E)"/>
    <path d="M24.605 68.01c.404.21.712.569.86 1a1.79 1.79 0 0 1-.16 1.35c-.09.15-9.13 17.11-13.86 26.49a1.74 1.74 0 0 1-1.44 1h-.1a1.8 1.8 0 0 1-.79-.19 1.761 1.761 0 0 1-.78-2.37c4.74-9.39 13.8-26.4 13.89-26.56a1.75 1.75 0 0 1 2.38-.72z" fill="url(#pwwb0buqhF)"/>
    <path d="M2.854 81.22a1.688 1.688 0 0 1-.73-.16 1.73 1.73 0 0 1-.85-1 1.78 1.78 0 0 1 0-1.34c5.21-11.36 11.35-19.93 18.79-26.19a1.82 1.82 0 0 1 2.48.21 1.76 1.76 0 0 1-.21 2.48c-7.03 6-12.86 14.13-17.86 25a1.75 1.75 0 0 1-1.47 1h-.15z" fill="url(#61hh56syhG)"/>
    <path d="M92.775 130.39a1.74 1.74 0 0 0 1.5-1.08 84.649 84.649 0 0 0 6.67-35.3 1.759 1.759 0 0 0-1.76-1.7h-.06a1.691 1.691 0 0 0-1.22.56 1.73 1.73 0 0 0-.48 1.26 81.003 81.003 0 0 1-6.42 33.88 1.758 1.758 0 0 0 1 2.3c.215.081.441.125.67.13l.1-.05z" fill="url(#p6kpzroqwH)"/>
    <path d="M85.576 52.115c.461.039.89.252 1.199.595 9.23 10.92 12.02 23.17 13.65 34.81a1.717 1.717 0 0 1-.34 1.31 1.76 1.76 0 0 1-1.16.68h-.25a1.76 1.76 0 0 1-1.74-1.52c-1.55-11.1-4.19-22.77-12.84-33a1.76 1.76 0 0 1 .2-2.49 1.82 1.82 0 0 1 1.281-.385z" fill="url(#qa44sg5czI)"/>
    <path d="M101.005 69.79c-.194 0-.386.03-.57.09-.44.156-.8.48-1 .9a1.73 1.73 0 0 0-.08 1.34c6.65 19.34 6.41 35.11-.84 54.45a1.772 1.772 0 0 0 1 2.27c.198.076.408.113.62.11h.12a1.774 1.774 0 0 0 1.53-1.14c7.46-19.92 7.72-36.91.87-56.84a1.771 1.771 0 0 0-1.65-1.18z" fill="url(#i2r1btxzaJ)"/>
    <path d="M95.235 44.31a1.81 1.81 0 0 0-2.48.19 1.761 1.761 0 0 0-.236 1.941c.105.206.25.39.426.539a62.102 62.102 0 0 1 14 16.83 1.77 1.77 0 0 0 1.55.91h.12a1.74 1.74 0 0 0 1.56-1.26 1.705 1.705 0 0 0-.14-1.34 65.709 65.709 0 0 0-14.8-17.81z" fill="url(#fmjdy14y2K)"/>
    <path d="M12.695 43.73c.398-.03.774-.192 1.07-.46 4.68-4.28 10.75-7.78 18.56-10.69a1.76 1.76 0 0 0 1-2.26 1.76 1.76 0 0 0-2.26-1.04c-8.24 3.08-14.68 6.8-19.71 11.39a1.76 1.76 0 0 0 1.19 3.06h.15z" fill="url(#6nbrzckyfL)"/>
    <path d="M81.255 21.42a1.75 1.75 0 0 0-1.66 1.19 1.709 1.709 0 0 0 .08 1.35 1.77 1.77 0 0 0 1 .89 72.431 72.431 0 0 1 17.92 8.77c.295.202.643.31 1 .31h.12a1.763 1.763 0 0 0 1.572-1.289 1.763 1.763 0 0 0-.692-1.911 75.885 75.885 0 0 0-18.78-9.21 1.559 1.559 0 0 0-.56-.1z" fill="url(#jos77i2agM)"/>
    <path d="M27.235 21.09h.13c.14-.012.277-.039.41-.08 3.78-1.21 7.7-2.17 11.73-3.13a1.76 1.76 0 0 0-.4-3.47 1.401 1.401 0 0 0-.41 0c-4.1 1-8.1 2-12 3.19a1.76 1.76 0 0 0 .53 3.44l.01.05z" fill="url(#2fn28unhkN)"/>
    <path d="M49.005 4.01h.16c1.58-.16 3.25-.27 5.3-.37a1.76 1.76 0 0 0-.12-3.51h-.08c-2 .09-3.82.21-5.45.38a1.76 1.76 0 0 0 .19 3.5z" fill="url(#oaqp9ugygO)"/>
    <path d="M75.573 145.421a1.755 1.755 0 0 1-.39.625c-.716.774-9.691 10.491-17.888 13.864a1.758 1.758 0 0 1-.54.12h-.13a1.759 1.759 0 0 1-1.544-2.597 1.76 1.76 0 0 1 .884-.793c7.58-3.11 16.55-12.9 16.64-13a1.819 1.819 0 0 1 2.49-.12 1.749 1.749 0 0 1 .478 1.901z" fill="url(#fevg1buctP)"/>
    <defs>
        <linearGradient id="9yp2qdl6za" x1=".887" y1="160.03" x2="111.115" y2="160.03" gradientUnits="userSpaceOnUse">
            <stop stop-color="#A6CE39"/>
            <stop offset="1" stop-color="#00A5E5"/>
        </linearGradient>
        <linearGradient id="pby2f1pphb" x1=".887" y1="160.03" x2="111.115" y2="160.03" gradientUnits="userSpaceOnUse">
            <stop stop-color="#A6CE39"/>
            <stop offset="1" stop-color="#00A5E5"/>
        </linearGradient>
        <linearGradient id="s8gnfr4wpc" x1=".887" y1="160.03" x2="111.115" y2="160.03" gradientUnits="userSpaceOnUse">
            <stop stop-color="#A6CE39"/>
            <stop offset="1" stop-color="#00A5E5"/>
        </linearGradient>
        <linearGradient id="rqtgjnsyrd" x1=".887" y1="160.03" x2="111.115" y2="160.03" gradientUnits="userSpaceOnUse">
            <stop stop-color="#A6CE39"/>
            <stop offset="1" stop-color="#00A5E5"/>
        </linearGradient>
        <linearGradient id="1xpwb71nde" x1=".887" y1="160.03" x2="111.115" y2="160.03" gradientUnits="userSpaceOnUse">
            <stop stop-color="#A6CE39"/>
            <stop offset="1" stop-color="#00A5E5"/>
        </linearGradient>
        <linearGradient id="ib3c9tv3ef" x1=".887" y1="160.03" x2="111.115" y2="160.03" gradientUnits="userSpaceOnUse">
            <stop stop-color="#A6CE39"/>
            <stop offset="1" stop-color="#00A5E5"/>
        </linearGradient>
        <linearGradient id="ynffhvvnng" x1=".887" y1="160.03" x2="111.115" y2="160.03" gradientUnits="userSpaceOnUse">
            <stop stop-color="#A6CE39"/>
            <stop offset="1" stop-color="#00A5E5"/>
        </linearGradient>
        <linearGradient id="rr6agko7nh" x1=".887" y1="160.03" x2="111.115" y2="160.03" gradientUnits="userSpaceOnUse">
            <stop stop-color="#A6CE39"/>
            <stop offset="1" stop-color="#00A5E5"/>
        </linearGradient>
        <linearGradient id="dbmvdr9dti" x1=".887" y1="160.03" x2="111.115" y2="160.03" gradientUnits="userSpaceOnUse">
            <stop stop-color="#A6CE39"/>
            <stop offset="1" stop-color="#00A5E5"/>
        </linearGradient>
        <linearGradient id="xzp675vzfj" x1=".887" y1="160.03" x2="111.115" y2="160.03" gradientUnits="userSpaceOnUse">
            <stop stop-color="#A6CE39"/>
            <stop offset="1" stop-color="#00A5E5"/>
        </linearGradient>
        <linearGradient id="t7ztemqn5k" x1=".887" y1="160.03" x2="111.115" y2="160.03" gradientUnits="userSpaceOnUse">
            <stop stop-color="#A6CE39"/>
            <stop offset="1" stop-color="#00A5E5"/>
        </linearGradient>
        <linearGradient id="ylx0qywxtl" x1=".887" y1="160.03" x2="111.115" y2="160.03" gradientUnits="userSpaceOnUse">
            <stop stop-color="#A6CE39"/>
            <stop offset="1" stop-color="#00A5E5"/>
        </linearGradient>
        <linearGradient id="99tvgnaezm" x1=".887" y1="160.03" x2="111.115" y2="160.03" gradientUnits="userSpaceOnUse">
            <stop stop-color="#A6CE39"/>
            <stop offset="1" stop-color="#00A5E5"/>
        </linearGradient>
        <linearGradient id="lfliwj6yin" x1=".887" y1="160.03" x2="111.115" y2="160.03" gradientUnits="userSpaceOnUse">
            <stop stop-color="#A6CE39"/>
            <stop offset="1" stop-color="#00A5E5"/>
        </linearGradient>
        <linearGradient id="twvh3w17co" x1=".887" y1="160.03" x2="111.115" y2="160.03" gradientUnits="userSpaceOnUse">
            <stop stop-color="#A6CE39"/>
            <stop offset="1" stop-color="#00A5E5"/>
        </linearGradient>
        <linearGradient id="q5a1vwg3np" x1=".887" y1="160.03" x2="111.115" y2="160.03" gradientUnits="userSpaceOnUse">
            <stop stop-color="#A6CE39"/>
            <stop offset="1" stop-color="#00A5E5"/>
        </linearGradient>
        <linearGradient id="en217tynyq" x1=".887" y1="160.03" x2="111.115" y2="160.03" gradientUnits="userSpaceOnUse">
            <stop stop-color="#A6CE39"/>
            <stop offset="1" stop-color="#00A5E5"/>
        </linearGradient>
        <linearGradient id="5iwjqikeor" x1=".887" y1="160.03" x2="111.115" y2="160.03" gradientUnits="userSpaceOnUse">
            <stop stop-color="#A6CE39"/>
            <stop offset="1" stop-color="#00A5E5"/>
        </linearGradient>
        <linearGradient id="mgsm792bps" x1=".887" y1="160.03" x2="111.115" y2="160.03" gradientUnits="userSpaceOnUse">
            <stop stop-color="#A6CE39"/>
            <stop offset="1" stop-color="#00A5E5"/>
        </linearGradient>
        <linearGradient id="74lo6upcst" x1=".887" y1="160.03" x2="111.115" y2="160.03" gradientUnits="userSpaceOnUse">
            <stop stop-color="#A6CE39"/>
            <stop offset="1" stop-color="#00A5E5"/>
        </linearGradient>
        <linearGradient id="0rohzqn3du" x1=".887" y1="160.03" x2="111.115" y2="160.03" gradientUnits="userSpaceOnUse">
            <stop stop-color="#A6CE39"/>
            <stop offset="1" stop-color="#00A5E5"/>
        </linearGradient>
        <linearGradient id="124d5sazbv" x1=".887" y1="160.03" x2="111.115" y2="160.03" gradientUnits="userSpaceOnUse">
            <stop stop-color="#A6CE39"/>
            <stop offset="1" stop-color="#00A5E5"/>
        </linearGradient>
        <linearGradient id="5gbezntpqw" x1=".887" y1="160.03" x2="111.115" y2="160.03" gradientUnits="userSpaceOnUse">
            <stop stop-color="#A6CE39"/>
            <stop offset="1" stop-color="#00A5E5"/>
        </linearGradient>
        <linearGradient id="4wuxbmb2kx" x1=".887" y1="160.03" x2="111.115" y2="160.03" gradientUnits="userSpaceOnUse">
            <stop stop-color="#A6CE39"/>
            <stop offset="1" stop-color="#00A5E5"/>
        </linearGradient>
        <linearGradient id="d0t7cdsc2y" x1=".887" y1="160.03" x2="111.115" y2="160.03" gradientUnits="userSpaceOnUse">
            <stop stop-color="#A6CE39"/>
            <stop offset="1" stop-color="#00A5E5"/>
        </linearGradient>
        <linearGradient id="6rqvjvzp6z" x1=".887" y1="160.03" x2="111.115" y2="160.03" gradientUnits="userSpaceOnUse">
            <stop stop-color="#A6CE39"/>
            <stop offset="1" stop-color="#00A5E5"/>
        </linearGradient>
        <linearGradient id="dvwgbx5xjA" x1=".887" y1="160.03" x2="111.115" y2="160.03" gradientUnits="userSpaceOnUse">
            <stop stop-color="#A6CE39"/>
            <stop offset="1" stop-color="#00A5E5"/>
        </linearGradient>
        <linearGradient id="8daupb4ylB" x1=".887" y1="160.03" x2="111.115" y2="160.03" gradientUnits="userSpaceOnUse">
            <stop stop-color="#A6CE39"/>
            <stop offset="1" stop-color="#00A5E5"/>
        </linearGradient>
        <linearGradient id="lxvic4zu1C" x1=".887" y1="160.03" x2="111.115" y2="160.03" gradientUnits="userSpaceOnUse">
            <stop stop-color="#A6CE39"/>
            <stop offset="1" stop-color="#00A5E5"/>
        </linearGradient>
        <linearGradient id="0c1gj2cdzD" x1=".887" y1="160.03" x2="111.115" y2="160.03" gradientUnits="userSpaceOnUse">
            <stop stop-color="#A6CE39"/>
            <stop offset="1" stop-color="#00A5E5"/>
        </linearGradient>
        <linearGradient id="wxlwj0t69E" x1=".887" y1="160.03" x2="111.115" y2="160.03" gradientUnits="userSpaceOnUse">
            <stop stop-color="#A6CE39"/>
            <stop offset="1" stop-color="#00A5E5"/>
        </linearGradient>
        <linearGradient id="pwwb0buqhF" x1=".887" y1="160.03" x2="111.115" y2="160.03" gradientUnits="userSpaceOnUse">
            <stop stop-color="#A6CE39"/>
            <stop offset="1" stop-color="#00A5E5"/>
        </linearGradient>
        <linearGradient id="61hh56syhG" x1=".887" y1="160.03" x2="111.115" y2="160.03" gradientUnits="userSpaceOnUse">
            <stop stop-color="#A6CE39"/>
            <stop offset="1" stop-color="#00A5E5"/>
        </linearGradient>
        <linearGradient id="p6kpzroqwH" x1=".887" y1="160.03" x2="111.115" y2="160.03" gradientUnits="userSpaceOnUse">
            <stop stop-color="#A6CE39"/>
            <stop offset="1" stop-color="#00A5E5"/>
        </linearGradient>
        <linearGradient id="qa44sg5czI" x1=".887" y1="160.03" x2="111.115" y2="160.03" gradientUnits="userSpaceOnUse">
            <stop stop-color="#A6CE39"/>
            <stop offset="1" stop-color="#00A5E5"/>
        </linearGradient>
        <linearGradient id="i2r1btxzaJ" x1=".887" y1="160.03" x2="111.115" y2="160.03" gradientUnits="userSpaceOnUse">
            <stop stop-color="#A6CE39"/>
            <stop offset="1" stop-color="#00A5E5"/>
        </linearGradient>
        <linearGradient id="fmjdy14y2K" x1=".887" y1="160.03" x2="111.115" y2="160.03" gradientUnits="userSpaceOnUse">
            <stop stop-color="#A6CE39"/>
            <stop offset="1" stop-color="#00A5E5"/>
        </linearGradient>
        <linearGradient id="6nbrzckyfL" x1=".887" y1="160.03" x2="111.115" y2="160.03" gradientUnits="userSpaceOnUse">
            <stop stop-color="#A6CE39"/>
            <stop offset="1" stop-color="#00A5E5"/>
        </linearGradient>
        <linearGradient id="jos77i2agM" x1=".887" y1="160.03" x2="111.115" y2="160.03" gradientUnits="userSpaceOnUse">
            <stop stop-color="#A6CE39"/>
            <stop offset="1" stop-color="#00A5E5"/>
        </linearGradient>
        <linearGradient id="2fn28unhkN" x1=".887" y1="160.03" x2="111.115" y2="160.03" gradientUnits="userSpaceOnUse">
            <stop stop-color="#A6CE39"/>
            <stop offset="1" stop-color="#00A5E5"/>
        </linearGradient>
        <linearGradient id="oaqp9ugygO" x1=".887" y1="160.03" x2="111.115" y2="160.03" gradientUnits="userSpaceOnUse">
            <stop stop-color="#A6CE39"/>
            <stop offset="1" stop-color="#00A5E5"/>
        </linearGradient>
        <linearGradient id="fevg1buctP" x1=".887" y1="160.03" x2="111.115" y2="160.03" gradientUnits="userSpaceOnUse">
            <stop stop-color="#A6CE39"/>
            <stop offset="1" stop-color="#00A5E5"/>
        </linearGradient>
    </defs>
</svg>
